<?xml version="1.0" encoding="UTF-8"?>
<svg xmlns="http://www.w3.org/2000/svg" xmlns:xlink="http://www.w3.org/1999/xlink" width="207.245pt" height="61.641pt" viewBox="0 0 207.245 61.641">
<defs>
<g>
<g id="glyph-0-0">
<path d="M 1.78125 -1.140625 C 1.390625 -0.484375 1 -0.34375 0.5625 -0.3125 C 0.4375 -0.296875 0.34375 -0.296875 0.34375 -0.109375 C 0.34375 -0.046875 0.40625 0 0.484375 0 C 0.75 0 1.0625 -0.03125 1.328125 -0.03125 C 1.671875 -0.03125 2.015625 0 2.328125 0 C 2.390625 0 2.515625 0 2.515625 -0.1875 C 2.515625 -0.296875 2.4375 -0.3125 2.359375 -0.3125 C 2.140625 -0.328125 1.890625 -0.40625 1.890625 -0.65625 C 1.890625 -0.78125 1.953125 -0.890625 2.03125 -1.03125 L 2.796875 -2.296875 L 5.296875 -2.296875 C 5.3125 -2.09375 5.453125 -0.734375 5.453125 -0.640625 C 5.453125 -0.34375 4.9375 -0.3125 4.734375 -0.3125 C 4.59375 -0.3125 4.5 -0.3125 4.5 -0.109375 C 4.5 0 4.609375 0 4.640625 0 C 5.046875 0 5.46875 -0.03125 5.875 -0.03125 C 6.125 -0.03125 6.765625 0 7.015625 0 C 7.0625 0 7.1875 0 7.1875 -0.203125 C 7.1875 -0.3125 7.09375 -0.3125 6.953125 -0.3125 C 6.34375 -0.3125 6.34375 -0.375 6.3125 -0.671875 L 5.703125 -6.890625 C 5.6875 -7.09375 5.6875 -7.140625 5.515625 -7.140625 C 5.359375 -7.140625 5.3125 -7.0625 5.25 -6.96875 Z M 2.984375 -2.609375 L 4.9375 -5.90625 L 5.265625 -2.609375 Z M 2.984375 -2.609375 "/>
</g>
<g id="glyph-0-1">
<path d="M 1.59375 -0.78125 C 1.5 -0.390625 1.46875 -0.3125 0.6875 -0.3125 C 0.515625 -0.3125 0.421875 -0.3125 0.421875 -0.109375 C 0.421875 0 0.515625 0 0.6875 0 L 4.25 0 C 5.828125 0 7 -1.171875 7 -2.15625 C 7 -2.875 6.421875 -3.453125 5.453125 -3.5625 C 6.484375 -3.75 7.53125 -4.484375 7.53125 -5.4375 C 7.53125 -6.171875 6.875 -6.8125 5.6875 -6.8125 L 2.328125 -6.8125 C 2.140625 -6.8125 2.046875 -6.8125 2.046875 -6.609375 C 2.046875 -6.5 2.140625 -6.5 2.328125 -6.5 C 2.34375 -6.5 2.53125 -6.5 2.703125 -6.484375 C 2.875 -6.453125 2.96875 -6.453125 2.96875 -6.3125 C 2.96875 -6.28125 2.953125 -6.25 2.9375 -6.125 Z M 3.09375 -3.65625 L 3.71875 -6.125 C 3.8125 -6.46875 3.828125 -6.5 4.25 -6.5 L 5.546875 -6.5 C 6.421875 -6.5 6.625 -5.90625 6.625 -5.46875 C 6.625 -4.59375 5.765625 -3.65625 4.5625 -3.65625 Z M 2.65625 -0.3125 C 2.515625 -0.3125 2.5 -0.3125 2.4375 -0.3125 C 2.328125 -0.328125 2.296875 -0.34375 2.296875 -0.421875 C 2.296875 -0.453125 2.296875 -0.46875 2.359375 -0.640625 L 3.046875 -3.421875 L 4.921875 -3.421875 C 5.875 -3.421875 6.078125 -2.6875 6.078125 -2.265625 C 6.078125 -1.28125 5.1875 -0.3125 4 -0.3125 Z M 2.65625 -0.3125 "/>
</g>
<g id="glyph-1-0">
<path d="M 2.328125 -4.4375 C 2.328125 -4.625 2.328125 -4.625 2.125 -4.625 C 1.671875 -4.1875 1.046875 -4.1875 0.765625 -4.1875 L 0.765625 -3.9375 C 0.921875 -3.9375 1.390625 -3.9375 1.765625 -4.125 L 1.765625 -0.578125 C 1.765625 -0.34375 1.765625 -0.25 1.078125 -0.25 L 0.8125 -0.25 L 0.8125 0 C 0.9375 0 1.796875 -0.03125 2.046875 -0.03125 C 2.265625 -0.03125 3.140625 0 3.296875 0 L 3.296875 -0.25 L 3.03125 -0.25 C 2.328125 -0.25 2.328125 -0.34375 2.328125 -0.578125 Z M 2.328125 -4.4375 "/>
</g>
<g id="glyph-1-1">
<path d="M 3.515625 -1.265625 L 3.28125 -1.265625 C 3.265625 -1.109375 3.1875 -0.703125 3.09375 -0.640625 C 3.046875 -0.59375 2.515625 -0.59375 2.40625 -0.59375 L 1.125 -0.59375 C 1.859375 -1.234375 2.109375 -1.4375 2.515625 -1.765625 C 3.03125 -2.171875 3.515625 -2.609375 3.515625 -3.265625 C 3.515625 -4.109375 2.78125 -4.625 1.890625 -4.625 C 1.03125 -4.625 0.4375 -4.015625 0.4375 -3.375 C 0.4375 -3.03125 0.734375 -2.984375 0.8125 -2.984375 C 0.96875 -2.984375 1.171875 -3.109375 1.171875 -3.359375 C 1.171875 -3.484375 1.125 -3.734375 0.765625 -3.734375 C 0.984375 -4.21875 1.453125 -4.375 1.78125 -4.375 C 2.484375 -4.375 2.84375 -3.828125 2.84375 -3.265625 C 2.84375 -2.65625 2.40625 -2.1875 2.1875 -1.9375 L 0.515625 -0.265625 C 0.4375 -0.203125 0.4375 -0.1875 0.4375 0 L 3.3125 0 Z M 3.515625 -1.265625 "/>
</g>
<g id="glyph-1-2">
<path d="M 1.90625 -2.328125 C 2.453125 -2.328125 2.84375 -1.953125 2.84375 -1.203125 C 2.84375 -0.34375 2.328125 -0.078125 1.9375 -0.078125 C 1.65625 -0.078125 1.03125 -0.15625 0.75 -0.578125 C 1.078125 -0.578125 1.15625 -0.8125 1.15625 -0.96875 C 1.15625 -1.1875 0.984375 -1.34375 0.765625 -1.34375 C 0.578125 -1.34375 0.375 -1.21875 0.375 -0.9375 C 0.375 -0.28125 1.09375 0.140625 1.9375 0.140625 C 2.90625 0.140625 3.578125 -0.515625 3.578125 -1.203125 C 3.578125 -1.75 3.140625 -2.296875 2.375 -2.453125 C 3.09375 -2.71875 3.359375 -3.234375 3.359375 -3.671875 C 3.359375 -4.21875 2.734375 -4.625 1.953125 -4.625 C 1.1875 -4.625 0.59375 -4.25 0.59375 -3.6875 C 0.59375 -3.453125 0.75 -3.328125 0.953125 -3.328125 C 1.171875 -3.328125 1.3125 -3.484375 1.3125 -3.671875 C 1.3125 -3.875 1.171875 -4.03125 0.953125 -4.046875 C 1.203125 -4.34375 1.671875 -4.421875 1.9375 -4.421875 C 2.25 -4.421875 2.6875 -4.265625 2.6875 -3.671875 C 2.6875 -3.375 2.59375 -3.046875 2.40625 -2.84375 C 2.1875 -2.578125 1.984375 -2.5625 1.640625 -2.53125 C 1.46875 -2.515625 1.453125 -2.515625 1.421875 -2.515625 C 1.40625 -2.515625 1.34375 -2.5 1.34375 -2.421875 C 1.34375 -2.328125 1.40625 -2.328125 1.53125 -2.328125 Z M 1.90625 -2.328125 "/>
</g>
<g id="glyph-1-3">
<path d="M 3.6875 -1.140625 L 3.6875 -1.390625 L 2.90625 -1.390625 L 2.90625 -4.5 C 2.90625 -4.640625 2.90625 -4.703125 2.765625 -4.703125 C 2.671875 -4.703125 2.640625 -4.703125 2.578125 -4.59375 L 0.265625 -1.390625 L 0.265625 -1.140625 L 2.328125 -1.140625 L 2.328125 -0.578125 C 2.328125 -0.328125 2.328125 -0.25 1.75 -0.25 L 1.5625 -0.25 L 1.5625 0 C 1.921875 -0.015625 2.359375 -0.03125 2.609375 -0.03125 C 2.875 -0.03125 3.3125 -0.015625 3.671875 0 L 3.671875 -0.25 L 3.484375 -0.25 C 2.90625 -0.25 2.90625 -0.328125 2.90625 -0.578125 L 2.90625 -1.140625 Z M 2.375 -3.9375 L 2.375 -1.390625 L 0.53125 -1.390625 Z M 2.375 -3.9375 "/>
</g>
<g id="glyph-1-4">
<path d="M 1.078125 -3.890625 C 1.4375 -3.796875 1.640625 -3.796875 1.75 -3.796875 C 2.671875 -3.796875 3.21875 -4.421875 3.21875 -4.53125 C 3.21875 -4.609375 3.171875 -4.625 3.140625 -4.625 C 3.125 -4.625 3.109375 -4.625 3.078125 -4.609375 C 2.90625 -4.546875 2.546875 -4.40625 2.03125 -4.40625 C 1.828125 -4.40625 1.46875 -4.421875 1.015625 -4.59375 C 0.9375 -4.625 0.921875 -4.625 0.921875 -4.625 C 0.828125 -4.625 0.828125 -4.546875 0.828125 -4.4375 L 0.828125 -2.390625 C 0.828125 -2.265625 0.828125 -2.1875 0.9375 -2.1875 C 1 -2.1875 1.015625 -2.1875 1.078125 -2.28125 C 1.375 -2.65625 1.8125 -2.71875 2.046875 -2.71875 C 2.46875 -2.71875 2.65625 -2.390625 2.6875 -2.328125 C 2.8125 -2.09375 2.859375 -1.828125 2.859375 -1.421875 C 2.859375 -1.21875 2.859375 -0.8125 2.640625 -0.5 C 2.46875 -0.25 2.171875 -0.078125 1.828125 -0.078125 C 1.375 -0.078125 0.90625 -0.328125 0.734375 -0.796875 C 1 -0.78125 1.140625 -0.953125 1.140625 -1.140625 C 1.140625 -1.4375 0.875 -1.484375 0.78125 -1.484375 C 0.78125 -1.484375 0.4375 -1.484375 0.4375 -1.109375 C 0.4375 -0.484375 1.015625 0.140625 1.84375 0.140625 C 2.734375 0.140625 3.515625 -0.515625 3.515625 -1.40625 C 3.515625 -2.1875 2.921875 -2.90625 2.0625 -2.90625 C 1.75 -2.90625 1.390625 -2.84375 1.078125 -2.578125 Z M 1.078125 -3.890625 "/>
</g>
<g id="glyph-2-0">
<path d="M 2.84375 -2.75 L 3.515625 -2.75 C 3.65625 -2.75 3.75 -2.75 3.75 -2.90625 C 3.75 -3 3.65625 -3 3.53125 -3 L 2.890625 -3 C 3.046875 -3.890625 3.09375 -4.203125 3.15625 -4.40625 C 3.1875 -4.5625 3.34375 -4.703125 3.515625 -4.703125 C 3.515625 -4.703125 3.703125 -4.703125 3.84375 -4.625 C 3.546875 -4.53125 3.53125 -4.28125 3.53125 -4.25 C 3.53125 -4.09375 3.65625 -3.984375 3.8125 -3.984375 C 4 -3.984375 4.203125 -4.140625 4.203125 -4.40625 C 4.203125 -4.734375 3.875 -4.90625 3.515625 -4.90625 C 3.203125 -4.90625 2.859375 -4.734375 2.671875 -4.390625 C 2.53125 -4.125 2.484375 -3.8125 2.328125 -3 L 1.78125 -3 C 1.640625 -3 1.546875 -3 1.546875 -2.84375 C 1.546875 -2.75 1.640625 -2.75 1.765625 -2.75 L 2.28125 -2.75 C 2.28125 -2.703125 1.84375 -0.203125 1.671875 0.546875 C 1.640625 0.703125 1.515625 1.21875 1.1875 1.21875 C 1.171875 1.21875 1.015625 1.21875 0.875 1.140625 C 1.15625 1.046875 1.1875 0.796875 1.1875 0.765625 C 1.1875 0.609375 1.0625 0.5 0.90625 0.5 C 0.71875 0.5 0.515625 0.65625 0.515625 0.921875 C 0.515625 1.234375 0.84375 1.421875 1.1875 1.421875 C 1.625 1.421875 1.9375 0.96875 2.015625 0.8125 C 2.265625 0.34375 2.4375 -0.515625 2.453125 -0.59375 Z M 2.84375 -2.75 "/>
</g>
<g id="glyph-2-1">
<path d="M 3.8125 -0.984375 C 4.453125 -1.640625 4.703125 -2.578125 4.703125 -2.640625 C 4.703125 -2.734375 4.625 -2.734375 4.59375 -2.734375 C 4.5 -2.734375 4.5 -2.71875 4.453125 -2.5625 C 4.328125 -2.109375 4.09375 -1.671875 3.796875 -1.296875 C 3.796875 -1.40625 3.78125 -1.875 3.765625 -1.9375 C 3.65625 -2.625 3.140625 -3.078125 2.4375 -3.078125 C 1.421875 -3.078125 0.4375 -2.125 0.4375 -1.140625 C 0.4375 -0.5 0.90625 0.0625 1.703125 0.0625 C 2.34375 0.0625 2.921875 -0.21875 3.3125 -0.515625 C 3.484375 -0.015625 3.828125 0.0625 4.046875 0.0625 C 4.453125 0.0625 4.703125 -0.265625 4.703125 -0.421875 C 4.703125 -0.5 4.609375 -0.5 4.578125 -0.5 C 4.484375 -0.5 4.46875 -0.46875 4.453125 -0.4375 C 4.359375 -0.171875 4.140625 -0.125 4.0625 -0.125 C 3.96875 -0.125 3.84375 -0.125 3.8125 -0.984375 Z M 3.265625 -0.75 C 2.578125 -0.1875 2 -0.125 1.734375 -0.125 C 1.265625 -0.125 1.015625 -0.4375 1.015625 -0.90625 C 1.015625 -1.09375 1.109375 -1.859375 1.46875 -2.34375 C 1.796875 -2.765625 2.1875 -2.875 2.4375 -2.875 C 2.984375 -2.875 3.15625 -2.34375 3.203125 -1.90625 C 3.25 -1.609375 3.234375 -1.109375 3.265625 -0.75 Z M 3.265625 -0.75 "/>
</g>
<g id="glyph-2-2">
<path d="M 3.703125 -2.578125 C 3.734375 -2.671875 3.734375 -2.703125 3.734375 -2.71875 C 3.734375 -2.875 3.609375 -2.9375 3.5 -2.9375 C 3.34375 -2.9375 3.203125 -2.8125 3.171875 -2.671875 C 3.0625 -2.859375 2.828125 -3.078125 2.453125 -3.078125 C 1.59375 -3.078125 0.671875 -2.140625 0.671875 -1.140625 C 0.671875 -0.421875 1.15625 0 1.734375 0 C 2.0625 0 2.359375 -0.15625 2.609375 -0.375 L 2.453125 0.25 C 2.375 0.546875 2.328125 0.734375 2.0625 0.96875 C 1.75 1.21875 1.453125 1.21875 1.28125 1.21875 C 0.96875 1.21875 0.875 1.203125 0.75 1.171875 C 0.921875 1.09375 0.96875 0.921875 0.96875 0.828125 C 0.96875 0.65625 0.84375 0.578125 0.703125 0.578125 C 0.5 0.578125 0.296875 0.734375 0.296875 1 C 0.296875 1.421875 0.90625 1.421875 1.296875 1.421875 C 2.390625 1.421875 2.84375 0.859375 2.953125 0.46875 Z M 2.75 -0.921875 C 2.71875 -0.828125 2.71875 -0.8125 2.59375 -0.671875 C 2.359375 -0.375 2.015625 -0.1875 1.75 -0.1875 C 1.40625 -0.1875 1.234375 -0.5 1.234375 -0.859375 C 1.234375 -1.15625 1.421875 -1.9375 1.609375 -2.25 C 1.890625 -2.734375 2.21875 -2.875 2.453125 -2.875 C 2.953125 -2.875 3.078125 -2.359375 3.078125 -2.28125 C 3.078125 -2.265625 3.078125 -2.265625 3.0625 -2.1875 Z M 2.75 -0.921875 "/>
</g>
<g id="glyph-3-0">
<path d="M 1.984375 -3.171875 C 1.984375 -3.3125 1.96875 -3.3125 1.796875 -3.3125 C 1.453125 -3 0.890625 -3 0.796875 -3 L 0.71875 -3 L 0.71875 -2.78125 L 0.796875 -2.78125 C 0.90625 -2.78125 1.234375 -2.796875 1.53125 -2.921875 L 1.53125 -0.421875 C 1.53125 -0.28125 1.53125 -0.21875 1 -0.21875 L 0.75 -0.21875 L 0.75 0 C 1.015625 -0.015625 1.46875 -0.015625 1.75 -0.015625 C 2.046875 -0.015625 2.484375 -0.015625 2.765625 0 L 2.765625 -0.21875 L 2.515625 -0.21875 C 1.984375 -0.21875 1.984375 -0.28125 1.984375 -0.421875 Z M 1.984375 -3.171875 "/>
</g>
<g id="glyph-3-1">
<path d="M 2.9375 -0.96875 L 2.71875 -0.96875 C 2.71875 -0.875 2.65625 -0.5625 2.578125 -0.515625 C 2.546875 -0.484375 2.125 -0.484375 2.046875 -0.484375 L 1.078125 -0.484375 C 1.40625 -0.71875 1.765625 -1 2.0625 -1.203125 C 2.515625 -1.515625 2.9375 -1.796875 2.9375 -2.328125 C 2.9375 -2.96875 2.328125 -3.3125 1.625 -3.3125 C 0.953125 -3.3125 0.453125 -2.9375 0.453125 -2.4375 C 0.453125 -2.1875 0.671875 -2.140625 0.75 -2.140625 C 0.875 -2.140625 1.03125 -2.234375 1.03125 -2.4375 C 1.03125 -2.609375 0.90625 -2.71875 0.75 -2.71875 C 0.890625 -2.953125 1.1875 -3.09375 1.515625 -3.09375 C 2 -3.09375 2.40625 -2.8125 2.40625 -2.328125 C 2.40625 -1.90625 2.109375 -1.578125 1.734375 -1.265625 L 0.515625 -0.234375 C 0.46875 -0.1875 0.453125 -0.1875 0.453125 -0.15625 L 0.453125 0 L 2.765625 0 Z M 2.9375 -0.96875 "/>
</g>
<g id="glyph-3-2">
<path d="M 1.640625 -1.65625 C 2.109375 -1.65625 2.40625 -1.359375 2.40625 -0.875 C 2.40625 -0.359375 2.09375 -0.09375 1.65625 -0.09375 C 1.59375 -0.09375 1 -0.09375 0.75 -0.359375 C 0.953125 -0.390625 1.015625 -0.53125 1.015625 -0.65625 C 1.015625 -0.84375 0.875 -0.96875 0.703125 -0.96875 C 0.546875 -0.96875 0.40625 -0.859375 0.40625 -0.640625 C 0.40625 -0.125 0.984375 0.109375 1.671875 0.109375 C 2.484375 0.109375 2.984375 -0.390625 2.984375 -0.875 C 2.984375 -1.28125 2.625 -1.625 2.0625 -1.75 C 2.65625 -1.953125 2.8125 -2.328125 2.8125 -2.609375 C 2.8125 -3.015625 2.3125 -3.3125 1.6875 -3.3125 C 1.0625 -3.3125 0.578125 -3.0625 0.578125 -2.609375 C 0.578125 -2.375 0.765625 -2.3125 0.859375 -2.3125 C 1 -2.3125 1.140625 -2.421875 1.140625 -2.609375 C 1.140625 -2.71875 1.078125 -2.859375 0.90625 -2.890625 C 1.109375 -3.109375 1.5625 -3.125 1.671875 -3.125 C 2.03125 -3.125 2.28125 -2.953125 2.28125 -2.609375 C 2.28125 -2.3125 2.09375 -1.859375 1.578125 -1.828125 C 1.4375 -1.828125 1.421875 -1.828125 1.28125 -1.8125 C 1.234375 -1.8125 1.171875 -1.8125 1.171875 -1.734375 C 1.171875 -1.65625 1.21875 -1.65625 1.3125 -1.65625 Z M 1.640625 -1.65625 "/>
</g>
<g id="glyph-3-3">
<path d="M 3.078125 -0.8125 L 3.078125 -1.03125 L 2.453125 -1.03125 L 2.453125 -3.21875 C 2.453125 -3.34375 2.453125 -3.375 2.3125 -3.375 C 2.21875 -3.375 2.21875 -3.375 2.15625 -3.296875 L 0.3125 -1.03125 L 0.3125 -0.8125 L 1.96875 -0.8125 L 1.96875 -0.421875 C 1.96875 -0.265625 1.96875 -0.21875 1.546875 -0.21875 L 1.359375 -0.21875 L 1.359375 0 C 1.59375 -0.015625 1.921875 -0.015625 2.21875 -0.015625 C 2.5 -0.015625 2.828125 -0.015625 3.0625 0 L 3.0625 -0.21875 L 2.890625 -0.21875 C 2.453125 -0.21875 2.453125 -0.265625 2.453125 -0.421875 L 2.453125 -0.8125 Z M 2.015625 -2.84375 L 2.015625 -1.03125 L 0.546875 -1.03125 Z M 2.015625 -2.84375 "/>
</g>
<g id="glyph-3-4">
<path d="M 0.984375 -2.75 C 1.234375 -2.6875 1.46875 -2.6875 1.515625 -2.6875 C 1.859375 -2.6875 2.109375 -2.78125 2.234375 -2.84375 C 2.359375 -2.90625 2.703125 -3.125 2.703125 -3.234375 C 2.703125 -3.3125 2.640625 -3.3125 2.625 -3.3125 C 2.609375 -3.3125 2.609375 -3.3125 2.546875 -3.296875 C 2.359375 -3.234375 2.046875 -3.15625 1.71875 -3.15625 C 1.4375 -3.15625 1.171875 -3.203125 0.90625 -3.296875 C 0.84375 -3.3125 0.84375 -3.3125 0.828125 -3.3125 C 0.75 -3.3125 0.75 -3.265625 0.75 -3.1875 L 0.75 -1.6875 C 0.75 -1.59375 0.75 -1.53125 0.859375 -1.53125 C 0.90625 -1.53125 0.90625 -1.546875 0.953125 -1.59375 C 1.140625 -1.8125 1.40625 -1.921875 1.75 -1.921875 C 2.03125 -1.921875 2.203125 -1.765625 2.265625 -1.65625 C 2.375 -1.484375 2.40625 -1.265625 2.40625 -1.015625 C 2.40625 -0.8125 2.390625 -0.53125 2.1875 -0.34375 C 1.96875 -0.109375 1.6875 -0.09375 1.578125 -0.09375 C 1.25 -0.09375 0.890625 -0.234375 0.734375 -0.53125 C 0.9375 -0.546875 1.015625 -0.6875 1.015625 -0.8125 C 1.015625 -0.96875 0.890625 -1.09375 0.734375 -1.09375 C 0.625 -1.09375 0.453125 -1.015625 0.453125 -0.796875 C 0.453125 -0.296875 0.9375 0.109375 1.578125 0.109375 C 2.328125 0.109375 2.9375 -0.390625 2.9375 -1 C 2.9375 -1.5625 2.453125 -2.09375 1.765625 -2.09375 C 1.453125 -2.09375 1.1875 -2.015625 0.984375 -1.84375 Z M 0.984375 -2.75 "/>
</g>
</g>
<clipPath id="clip-0">
<path clip-rule="nonzero" d="M 0 0 L 207.246094 0 L 207.246094 61.640625 L 0 61.640625 Z M 0 0 "/>
</clipPath>
</defs>
<g clip-path="url(#clip-0)">
<path fill-rule="nonzero" fill="rgb(100%, 100%, 100%)" fill-opacity="1" d="M 0 61.640625 L 0 0 L 207.246094 0 L 207.246094 61.640625 Z M 0 61.640625 "/>
</g>
<g fill="rgb(0%, 0%, 0%)" fill-opacity="1">
<use xlink:href="#glyph-0-0" x="8.621" y="17.468"/>
</g>
<g fill="rgb(0%, 0%, 0%)" fill-opacity="1">
<use xlink:href="#glyph-1-0" x="16.093" y="18.962"/>
</g>
<g fill="rgb(0%, 0%, 0%)" fill-opacity="1">
<use xlink:href="#glyph-0-0" x="53.137" y="17.468"/>
</g>
<g fill="rgb(0%, 0%, 0%)" fill-opacity="1">
<use xlink:href="#glyph-1-1" x="60.609" y="18.962"/>
</g>
<g fill="rgb(0%, 0%, 0%)" fill-opacity="1">
<use xlink:href="#glyph-0-0" x="97.652" y="17.468"/>
</g>
<g fill="rgb(0%, 0%, 0%)" fill-opacity="1">
<use xlink:href="#glyph-1-2" x="105.124" y="18.962"/>
</g>
<g fill="rgb(0%, 0%, 0%)" fill-opacity="1">
<use xlink:href="#glyph-0-0" x="142.167" y="17.468"/>
</g>
<g fill="rgb(0%, 0%, 0%)" fill-opacity="1">
<use xlink:href="#glyph-1-3" x="149.639" y="18.962"/>
</g>
<g fill="rgb(0%, 0%, 0%)" fill-opacity="1">
<use xlink:href="#glyph-0-0" x="186.683" y="17.468"/>
</g>
<g fill="rgb(0%, 0%, 0%)" fill-opacity="1">
<use xlink:href="#glyph-1-4" x="194.155" y="18.962"/>
</g>
<g fill="rgb(0%, 0%, 0%)" fill-opacity="1">
<use xlink:href="#glyph-0-1" x="8.579" y="50.995"/>
</g>
<g fill="rgb(0%, 0%, 0%)" fill-opacity="1">
<use xlink:href="#glyph-1-0" x="16.136" y="52.489"/>
</g>
<g fill="rgb(0%, 0%, 0%)" fill-opacity="1">
<use xlink:href="#glyph-0-1" x="53.094" y="50.995"/>
</g>
<g fill="rgb(0%, 0%, 0%)" fill-opacity="1">
<use xlink:href="#glyph-1-1" x="60.651" y="52.489"/>
</g>
<g fill="rgb(0%, 0%, 0%)" fill-opacity="1">
<use xlink:href="#glyph-0-1" x="97.61" y="50.995"/>
</g>
<g fill="rgb(0%, 0%, 0%)" fill-opacity="1">
<use xlink:href="#glyph-1-2" x="105.166" y="52.489"/>
</g>
<g fill="rgb(0%, 0%, 0%)" fill-opacity="1">
<use xlink:href="#glyph-0-1" x="142.125" y="50.995"/>
</g>
<g fill="rgb(0%, 0%, 0%)" fill-opacity="1">
<use xlink:href="#glyph-1-3" x="149.682" y="52.489"/>
</g>
<g fill="rgb(0%, 0%, 0%)" fill-opacity="1">
<use xlink:href="#glyph-0-1" x="186.64" y="50.995"/>
</g>
<g fill="rgb(0%, 0%, 0%)" fill-opacity="1">
<use xlink:href="#glyph-1-4" x="194.197" y="52.489"/>
</g>
<path fill="none" stroke-width="0.39848" stroke-linecap="butt" stroke-linejoin="miter" stroke="rgb(0%, 0%, 0%)" stroke-opacity="1" stroke-miterlimit="10" d="M -78.572219 16.598437 L -55.373 16.598437 " transform="matrix(1, 0, 0, -1, 103.623, 31.575)"/>
<path fill="none" stroke-width="0.39848" stroke-linecap="round" stroke-linejoin="round" stroke="rgb(0%, 0%, 0%)" stroke-opacity="1" stroke-miterlimit="10" d="M -2.07335 2.391362 C -1.694444 0.957769 -0.850694 0.278081 0.00086875 0.0007375 C -0.850694 -0.280513 -1.694444 -0.956294 -2.07335 -2.389888 " transform="matrix(1, 0, 0, -1, 48.44835, 14.9773)"/>
<g fill="rgb(0%, 0%, 0%)" fill-opacity="1">
<use xlink:href="#glyph-2-0" x="32.963" y="11.277"/>
</g>
<g fill="rgb(0%, 0%, 0%)" fill-opacity="1">
<use xlink:href="#glyph-3-0" x="36.848" y="12.273"/>
</g>
<path fill="none" stroke-width="0.39848" stroke-linecap="butt" stroke-linejoin="miter" stroke="rgb(0%, 0%, 0%)" stroke-opacity="1" stroke-miterlimit="10" d="M -89.033156 8.766406 L -89.033156 -8.370313 " transform="matrix(1, 0, 0, -1, 103.623, 31.575)"/>
<path fill="none" stroke-width="0.39848" stroke-linecap="round" stroke-linejoin="round" stroke="rgb(0%, 0%, 0%)" stroke-opacity="1" stroke-miterlimit="10" d="M -2.072697 2.389249 C -1.693791 0.955655 -0.850041 0.279874 0.00152125 -0.00137625 C -0.850041 -0.27872 -1.693791 -0.954501 -2.072697 -2.392001 " transform="matrix(0, 1, 1, 0, 14.59122, 40.14301)"/>
<g fill="rgb(0%, 0%, 0%)" fill-opacity="1">
<use xlink:href="#glyph-2-1" x="16.936" y="32.578"/>
</g>
<g fill="rgb(0%, 0%, 0%)" fill-opacity="1">
<use xlink:href="#glyph-3-0" x="22.115" y="33.574"/>
</g>
<path fill="none" stroke-width="0.39848" stroke-linecap="butt" stroke-linejoin="miter" stroke="rgb(0%, 0%, 0%)" stroke-opacity="1" stroke-miterlimit="10" d="M -34.056594 16.598437 L -10.857375 16.598437 " transform="matrix(1, 0, 0, -1, 103.623, 31.575)"/>
<path fill="none" stroke-width="0.39848" stroke-linecap="round" stroke-linejoin="round" stroke="rgb(0%, 0%, 0%)" stroke-opacity="1" stroke-miterlimit="10" d="M -2.073625 2.391362 C -1.694719 0.957769 -0.850969 0.278081 0.00059375 0.0007375 C -0.850969 -0.280513 -1.694719 -0.956294 -2.073625 -2.389888 " transform="matrix(1, 0, 0, -1, 92.96425, 14.9773)"/>
<g fill="rgb(0%, 0%, 0%)" fill-opacity="1">
<use xlink:href="#glyph-2-0" x="77.478" y="11.277"/>
</g>
<g fill="rgb(0%, 0%, 0%)" fill-opacity="1">
<use xlink:href="#glyph-3-1" x="81.363" y="12.273"/>
</g>
<path fill="none" stroke-width="0.39848" stroke-linecap="butt" stroke-linejoin="miter" stroke="rgb(0%, 0%, 0%)" stroke-opacity="1" stroke-miterlimit="10" d="M -44.517531 8.766406 L -44.517531 -8.370313 " transform="matrix(1, 0, 0, -1, 103.623, 31.575)"/>
<path fill="none" stroke-width="0.39848" stroke-linecap="round" stroke-linejoin="round" stroke="rgb(0%, 0%, 0%)" stroke-opacity="1" stroke-miterlimit="10" d="M -2.072697 2.388974 C -1.693791 0.95538 -0.850041 0.279599 0.00152125 -0.00165125 C -0.850041 -0.278995 -1.693791 -0.954776 -2.072697 -2.392276 " transform="matrix(0, 1, 1, 0, 59.10712, 40.14301)"/>
<g fill="rgb(0%, 0%, 0%)" fill-opacity="1">
<use xlink:href="#glyph-2-1" x="61.451" y="32.578"/>
</g>
<g fill="rgb(0%, 0%, 0%)" fill-opacity="1">
<use xlink:href="#glyph-3-1" x="66.631" y="33.574"/>
</g>
<path fill="none" stroke-width="0.39848" stroke-linecap="butt" stroke-linejoin="miter" stroke="rgb(0%, 0%, 0%)" stroke-opacity="1" stroke-miterlimit="10" d="M 10.459031 16.598437 L 33.65825 16.598437 " transform="matrix(1, 0, 0, -1, 103.623, 31.575)"/>
<path fill="none" stroke-width="0.39848" stroke-linecap="round" stroke-linejoin="round" stroke="rgb(0%, 0%, 0%)" stroke-opacity="1" stroke-miterlimit="10" d="M -2.07387 2.391362 C -1.694964 0.957769 -0.851214 0.278081 0.00034875 0.0007375 C -0.851214 -0.280513 -1.694964 -0.956294 -2.07387 -2.389888 " transform="matrix(1, 0, 0, -1, 137.48012, 14.9773)"/>
<g fill="rgb(0%, 0%, 0%)" fill-opacity="1">
<use xlink:href="#glyph-2-0" x="121.994" y="11.277"/>
</g>
<g fill="rgb(0%, 0%, 0%)" fill-opacity="1">
<use xlink:href="#glyph-3-2" x="125.879" y="12.273"/>
</g>
<path fill="none" stroke-width="0.39848" stroke-linecap="butt" stroke-linejoin="miter" stroke="rgb(0%, 0%, 0%)" stroke-opacity="1" stroke-miterlimit="10" d="M -0.00190625 8.766406 L -0.00190625 -8.370313 " transform="matrix(1, 0, 0, -1, 103.623, 31.575)"/>
<path fill="none" stroke-width="0.39848" stroke-linecap="round" stroke-linejoin="round" stroke="rgb(0%, 0%, 0%)" stroke-opacity="1" stroke-miterlimit="10" d="M -2.072697 2.392625 C -1.693791 0.955125 -0.850041 0.279344 0.00152125 -0.00190625 C -0.850041 -0.27925 -1.693791 -0.955031 -2.072697 -2.392531 " transform="matrix(0, 1, 1, 0, 103.623, 40.14301)"/>
<g fill="rgb(0%, 0%, 0%)" fill-opacity="1">
<use xlink:href="#glyph-2-1" x="105.967" y="32.578"/>
</g>
<g fill="rgb(0%, 0%, 0%)" fill-opacity="1">
<use xlink:href="#glyph-3-2" x="111.146" y="33.574"/>
</g>
<path fill="none" stroke-width="0.39848" stroke-linecap="butt" stroke-linejoin="miter" stroke="rgb(0%, 0%, 0%)" stroke-opacity="1" stroke-miterlimit="10" d="M 54.974656 16.598437 L 78.173875 16.598437 " transform="matrix(1, 0, 0, -1, 103.623, 31.575)"/>
<path fill="none" stroke-width="0.39848" stroke-linecap="round" stroke-linejoin="round" stroke="rgb(0%, 0%, 0%)" stroke-opacity="1" stroke-miterlimit="10" d="M -2.070239 2.391362 C -1.695239 0.957769 -0.851489 0.278081 0.00007375 0.0007375 C -0.851489 -0.280513 -1.695239 -0.956294 -2.070239 -2.389888 " transform="matrix(1, 0, 0, -1, 181.99602, 14.9773)"/>
<g fill="rgb(0%, 0%, 0%)" fill-opacity="1">
<use xlink:href="#glyph-2-0" x="166.509" y="11.277"/>
</g>
<g fill="rgb(0%, 0%, 0%)" fill-opacity="1">
<use xlink:href="#glyph-3-3" x="170.394" y="12.273"/>
</g>
<path fill="none" stroke-width="0.39848" stroke-linecap="butt" stroke-linejoin="miter" stroke="rgb(0%, 0%, 0%)" stroke-opacity="1" stroke-miterlimit="10" d="M 44.517625 8.766406 L 44.517625 -8.370313 " transform="matrix(1, 0, 0, -1, 103.623, 31.575)"/>
<path fill="none" stroke-width="0.39848" stroke-linecap="round" stroke-linejoin="round" stroke="rgb(0%, 0%, 0%)" stroke-opacity="1" stroke-miterlimit="10" d="M -2.072697 2.39237 C -1.693791 0.95487 -0.850041 0.279089 0.00152125 0.001745 C -0.850041 -0.279505 -1.693791 -0.955286 -2.072697 -2.392786 " transform="matrix(0, 1, 1, 0, 148.13888, 40.14301)"/>
<g fill="rgb(0%, 0%, 0%)" fill-opacity="1">
<use xlink:href="#glyph-2-1" x="150.482" y="32.578"/>
</g>
<g fill="rgb(0%, 0%, 0%)" fill-opacity="1">
<use xlink:href="#glyph-3-3" x="155.661" y="33.574"/>
</g>
<path fill="none" stroke-width="0.39848" stroke-linecap="butt" stroke-linejoin="miter" stroke="rgb(0%, 0%, 0%)" stroke-opacity="1" stroke-miterlimit="10" d="M 89.03325 8.766406 L 89.03325 -8.370313 " transform="matrix(1, 0, 0, -1, 103.623, 31.575)"/>
<path fill="none" stroke-width="0.39848" stroke-linecap="round" stroke-linejoin="round" stroke="rgb(0%, 0%, 0%)" stroke-opacity="1" stroke-miterlimit="10" d="M -2.072697 2.392095 C -1.693791 0.954595 -0.850041 0.278814 0.00152125 0.00147 C -0.850041 -0.27978 -1.693791 -0.955561 -2.072697 -2.389155 " transform="matrix(0, 1, 1, 0, 192.65478, 40.14301)"/>
<g fill="rgb(0%, 0%, 0%)" fill-opacity="1">
<use xlink:href="#glyph-2-1" x="181.242" y="32.578"/>
</g>
<g fill="rgb(0%, 0%, 0%)" fill-opacity="1">
<use xlink:href="#glyph-3-4" x="186.421" y="33.574"/>
</g>
<path fill="none" stroke-width="0.39848" stroke-linecap="butt" stroke-linejoin="miter" stroke="rgb(0%, 0%, 0%)" stroke-opacity="1" stroke-miterlimit="10" d="M -78.52925 -16.928906 L -55.415969 -16.928906 " transform="matrix(1, 0, 0, -1, 103.623, 31.575)"/>
<path fill="none" stroke-width="0.39848" stroke-linecap="round" stroke-linejoin="round" stroke="rgb(0%, 0%, 0%)" stroke-opacity="1" stroke-miterlimit="10" d="M -2.073959 2.391499 C -1.695052 0.957905 -0.851302 0.278217 0.00026 0.00087375 C -0.851302 -0.280376 -1.695052 -0.956158 -2.073959 -2.389751 " transform="matrix(1, 0, 0, -1, 48.40599, 48.50478)"/>
<g fill="rgb(0%, 0%, 0%)" fill-opacity="1">
<use xlink:href="#glyph-2-2" x="32.962" y="53.851"/>
</g>
<g fill="rgb(0%, 0%, 0%)" fill-opacity="1">
<use xlink:href="#glyph-3-0" x="36.849" y="54.847"/>
</g>
<path fill="none" stroke-width="0.39848" stroke-linecap="butt" stroke-linejoin="miter" stroke="rgb(0%, 0%, 0%)" stroke-opacity="1" stroke-miterlimit="10" d="M -34.013625 -16.928906 L -10.900344 -16.928906 " transform="matrix(1, 0, 0, -1, 103.623, 31.575)"/>
<path fill="none" stroke-width="0.39848" stroke-linecap="round" stroke-linejoin="round" stroke="rgb(0%, 0%, 0%)" stroke-opacity="1" stroke-miterlimit="10" d="M -2.070307 2.391499 C -1.695307 0.957905 -0.851557 0.278217 0.000005 0.00087375 C -0.851557 -0.280376 -1.695307 -0.956158 -2.070307 -2.389751 " transform="matrix(1, 0, 0, -1, 92.92187, 48.50478)"/>
<g fill="rgb(0%, 0%, 0%)" fill-opacity="1">
<use xlink:href="#glyph-2-2" x="77.478" y="53.851"/>
</g>
<g fill="rgb(0%, 0%, 0%)" fill-opacity="1">
<use xlink:href="#glyph-3-1" x="81.364" y="54.847"/>
</g>
<path fill="none" stroke-width="0.39848" stroke-linecap="butt" stroke-linejoin="miter" stroke="rgb(0%, 0%, 0%)" stroke-opacity="1" stroke-miterlimit="10" d="M 10.502 -16.928906 L 33.615281 -16.928906 " transform="matrix(1, 0, 0, -1, 103.623, 31.575)"/>
<path fill="none" stroke-width="0.39848" stroke-linecap="round" stroke-linejoin="round" stroke="rgb(0%, 0%, 0%)" stroke-opacity="1" stroke-miterlimit="10" d="M -2.070572 2.391499 C -1.691666 0.957905 -0.851822 0.278217 -0.00026 0.00087375 C -0.851822 -0.280376 -1.691666 -0.956158 -2.070572 -2.389751 " transform="matrix(1, 0, 0, -1, 137.43776, 48.50478)"/>
<g fill="rgb(0%, 0%, 0%)" fill-opacity="1">
<use xlink:href="#glyph-2-2" x="121.993" y="53.851"/>
</g>
<g fill="rgb(0%, 0%, 0%)" fill-opacity="1">
<use xlink:href="#glyph-3-2" x="125.88" y="54.847"/>
</g>
<path fill="none" stroke-width="0.39848" stroke-linecap="butt" stroke-linejoin="miter" stroke="rgb(0%, 0%, 0%)" stroke-opacity="1" stroke-miterlimit="10" d="M 55.017625 -16.928906 L 78.130906 -16.928906 " transform="matrix(1, 0, 0, -1, 103.623, 31.575)"/>
<path fill="none" stroke-width="0.39848" stroke-linecap="round" stroke-linejoin="round" stroke="rgb(0%, 0%, 0%)" stroke-opacity="1" stroke-miterlimit="10" d="M -2.070828 2.391499 C -1.691921 0.957905 -0.848171 0.278217 -0.000515 0.00087375 C -0.848171 -0.280376 -1.691921 -0.956158 -2.070828 -2.389751 " transform="matrix(1, 0, 0, -1, 181.95364, 48.50478)"/>
<g fill="rgb(0%, 0%, 0%)" fill-opacity="1">
<use xlink:href="#glyph-2-2" x="166.508" y="53.851"/>
</g>
<g fill="rgb(0%, 0%, 0%)" fill-opacity="1">
<use xlink:href="#glyph-3-3" x="170.395" y="54.847"/>
</g>
</svg>
